<svg version="1.1" viewBox="0.0 0.0 800.0 600.0" fill="none" stroke="none" stroke-linecap="square" stroke-miterlimit="10" xmlns:xlink="http://www.w3.org/1999/xlink" xmlns="http://www.w3.org/2000/svg"><clipPath id="p.0"><path d="m0 0l800.0 0l0 600.0l-800.0 0l0 -600.0z" clip-rule="nonzero"/></clipPath><g clip-path="url(#p.0)"><path fill="#000000" fill-opacity="0.0" d="m0 0l800.0 0l0 600.0l-800.0 0z" fill-rule="evenodd"/><path fill="#a6a6a6" d="m25.729658 274.00787l0 0c0 -74.59758 61.051437 -135.07086 136.3622 -135.07086l0 0c36.165512 0 70.84978 14.230637 96.42264 39.56134c25.572876 25.330704 39.939575 59.68651 39.939575 95.50952l0 0c0 74.597595 -61.051437 135.07086 -136.36221 135.07086l0 0c-75.31076 0 -136.3622 -60.473267 -136.3622 -135.07086z" fill-rule="evenodd"/><path stroke="#a6a6a6" stroke-width="1.0" stroke-linejoin="round" stroke-linecap="butt" d="m25.729658 274.00787l0 0c0 -74.59758 61.051437 -135.07086 136.3622 -135.07086l0 0c36.165512 0 70.84978 14.230637 96.42264 39.56134c25.572876 25.330704 39.939575 59.68651 39.939575 95.50952l0 0c0 74.597595 -61.051437 135.07086 -136.36221 135.07086l0 0c-75.31076 0 -136.3622 -60.473267 -136.3622 -135.07086z" fill-rule="evenodd"/><path fill="#0d0d0d" d="m77.704636 232.32172l15.914925 43.701874l-31.765682 0l15.850758 -43.701874zm-5.390541 -15.209015l-35.68025 93.436035l12.706276 0l8.791714 -24.385773l39.14559 0l8.920059 24.385773l12.642105 0l-35.744415 -93.436035z" fill-rule="evenodd"/><path fill="#0d0d0d" d="m130.58327 211.97885l0 98.569885l11.872025 0l0 -98.569885z" fill-rule="evenodd"/><path fill="#0d0d0d" d="m188.78827 249.58429c4.962723 0 8.898682 1.661377 11.807861 4.9841156c2.9091797 3.308487 4.534897 7.978836 4.8771515 14.011124l0 0.898407l-34.78183 0c0.77008057 -6.2889404 2.780838 -11.173248 6.0322723 -14.652847c3.2514496 -3.493866 7.2729645 -5.240799 12.064545 -5.240799zm0 -9.754318c-5.5188904 0 -10.645615 1.5330353 -15.380142 4.5990753c-4.7203064 3.0517883 -8.399567 7.287216 -11.037781 12.706268c-2.6239777 5.4048157 -3.9359436 11.551178 -3.9359436 18.439087l0 2.1818848c0 10.353241 2.95195 18.62445 8.855881 24.813599c5.9039307 6.1748657 13.56192 9.262299 22.973969 9.262299c11.636719 0 20.364273 -4.470703 26.182632 -13.41217l-7.2515717 -5.647217c-2.1818848 2.8236084 -4.727417 5.0910645 -7.6365967 6.8023376c-2.9091797 1.7112732 -6.460083 2.566925 -10.652725 2.566925c-5.9039307 0 -10.773956 -2.1034546 -14.610077 -6.310364c-3.821869 -4.221161 -5.8183594 -9.754303 -5.9894867 -16.599426l47.03888 0l0 -4.941345c0 -11.080536 -2.5027466 -19.594177 -7.508255 -25.540894c-5.0055084 -5.946701 -12.021759 -8.920059 -21.048782 -8.920059z" fill-rule="evenodd"/><path fill="#0d0d0d" d="m225.43112 241.11343l22.71727 34.33261l-23.423187 35.10269l13.797226 0l16.043274 -25.990112l16.043274 25.990112l13.733032 0l-23.423157 -35.10269l22.717255 -34.33261l-13.861389 0l-15.401535 25.348389l-15.20903 -25.348389z" fill-rule="evenodd"/><path fill="#0d0d0d" d="m359.61707 215.82924c-9.412048 0 -17.062897 2.4100494 -22.952576 7.2301636c-5.8753967 4.805847 -8.81311 10.888031 -8.81311 18.246552c0 6.502884 2.4029236 11.971848 7.2087708 16.406937c4.8201294 4.420807 12.513763 8.149963 23.080933 11.1875c8.42807 2.438568 14.246429 4.9128113 17.455078 7.422699c3.2086792 2.4956055 4.8129883 6.032257 4.8129883 10.609955c0 4.577667 -1.732666 8.192749 -5.1980286 10.845245c-3.465332 2.6524963 -8.449432 3.9787292 -14.952332 3.9787292c-6.9734497 0 -12.549408 -1.632843 -16.727783 -4.8985596c-4.1641235 -3.2799377 -6.2461853 -7.7435303 -6.2461853 -13.390778l-12.3854065 0c0 5.433319 1.5045166 10.289093 4.5135193 14.567291c3.0232544 4.2781982 7.315735 7.6508484 12.877411 10.11795c5.5616455 2.4528503 11.551147 3.6792603 17.968445 3.6792603c9.88266 0 17.77597 -2.2745667 23.679901 -6.8237305c5.9039 -4.5634155 8.8558655 -10.631348 8.8558655 -18.203766c0 -4.74881 -1.0624084 -8.877289 -3.1872559 -12.3854065c-2.1105957 -3.5081482 -5.36203 -6.574188 -9.754303 -9.198151c-4.3780518 -2.638214 -10.4530945 -5.048279 -18.225159 -7.2301636c-7.7578125 -2.1818848 -13.25531 -4.5848083 -16.492493 -7.208786c-3.222931 -2.6382294 -4.834381 -5.861145 -4.834381 -9.668747c0 -4.74881 1.6970215 -8.456589 5.0910645 -11.123337c3.4083252 -2.681015 8.149994 -4.021515 14.225037 -4.021515c6.5456543 0 11.615326 1.6185913 15.209045 4.855774c3.593689 3.2229156 5.3905334 7.6579895 5.3905334 13.305222l12.3854065 0c0 -5.1766357 -1.3833008 -9.946838 -4.149872 -14.310608c-2.7523193 -4.3637695 -6.6454773 -7.786331 -11.679504 -10.2677c-5.019745 -2.4813538 -10.738281 -3.7220306 -17.15561 -3.7220306z" fill-rule="evenodd"/><path fill="#0d0d0d" d="m439.12753 239.82997c-8.5563965 0 -15.487091 3.3370056 -20.792084 10.011002l-0.38504028 -8.727539l-11.230286 0l0 69.4353l11.87204 0l0 -49.477478c1.6257019 -3.336975 3.893158 -6.032257 6.8023376 -8.0858c2.9091797 -2.053543 6.288971 -3.080307 10.139343 -3.080307c4.74881 0 8.242676 1.1979065 10.481628 3.593689c2.2531738 2.3957977 3.4011536 6.0964355 3.4439392 11.101959l0 45.947937l11.87204 0l0 -45.88376c-0.12835693 -16.556671 -7.529663 -24.835007 -22.203918 -24.835007z" fill-rule="evenodd"/><path fill="#0d0d0d" d="m506.5735 249.58429c4.9627075 0 8.898682 1.661377 11.807861 4.9841156c2.9091797 3.308487 4.534851 7.978836 4.877136 14.011124l0 0.898407l-34.78183 0c0.77008057 -6.2889404 2.7808533 -11.173248 6.0322876 -14.652847c3.2514343 -3.493866 7.272949 -5.240799 12.064545 -5.240799zm0 -9.754318c-5.5188904 0 -10.645599 1.5330353 -15.380157 4.5990753c-4.7203064 3.0517883 -8.399536 7.287216 -11.037781 12.706268c-2.6239624 5.4048157 -3.9359436 11.551178 -3.9359436 18.439087l0 2.1818848c0 10.353241 2.9519653 18.62445 8.855896 24.813599c5.9039 6.1748657 13.56189 9.262299 22.973969 9.262299c11.636688 0 20.364227 -4.470703 26.182587 -13.41217l-7.251526 -5.647217c-2.1818848 2.8236084 -4.727417 5.0910645 -7.6365967 6.8023376c-2.9091797 1.7112732 -6.460083 2.566925 -10.6527405 2.566925c-5.9039307 0 -10.773956 -2.1034546 -14.610077 -6.310364c-3.821869 -4.221161 -5.8183594 -9.754303 -5.989502 -16.599426l47.03888 0l0 -4.941345c0 -11.080536 -2.5027466 -19.594177 -7.5082397 -25.540894c-5.005493 -5.946701 -12.02179 -8.920059 -21.048767 -8.920059z" fill-rule="evenodd"/><path fill="#0d0d0d" d="m589.8702 276.85785l0 14.246429c-1.4973755 3.0803223 -3.9145508 5.583069 -7.251587 7.5082703c-3.336975 1.9251709 -6.866516 2.8877869 -10.588562 2.8877869c-3.8931885 0 -7.0804443 -1.0481567 -9.561768 -3.1445007c-2.4813843 -2.0963135 -3.722046 -5.005493 -3.722046 -8.727539c0 -8.513611 7.272949 -12.770447 21.818848 -12.770447zm-13.989746 -37.027878c-5.048279 0 -9.683044 0.9412079 -13.904175 2.8236237c-4.206909 1.8824005 -7.5439453 4.4421997 -10.010986 7.6793823c-2.4528809 3.2229156 -3.6792603 6.567047 -3.6792603 10.032379l11.936157 0c0 -3.037506 1.4332275 -5.625824 4.2996216 -7.7649384c2.866394 -2.1390991 6.4172974 -3.2086487 10.65271 -3.2086487c4.8344116 0 8.492249 1.233551 10.973633 3.700653c2.4813232 2.452835 3.722046 5.754196 3.722046 9.904037l0 5.454712l-11.551147 0c-9.968262 0 -17.70465 2.0036316 -23.20929 6.010895c-5.4903564 3.992981 -8.235535 9.604553 -8.235535 16.834747c0 5.946686 2.1890259 10.859497 6.5670166 14.738403c4.392273 3.8646545 10.010986 5.7969666 16.85614 5.7969666c7.65802 0 14.24646 -2.866394 19.76532 -8.599182c0.4277954 3.5081177 0.9840088 5.9467163 1.6685181 7.315735l12.449585 0l0 -1.0267639c-1.6257324 -3.7648315 -2.4385986 -8.834503 -2.4385986 -15.209045l0 -31.95819c-0.17114258 -7.016266 -2.52417 -12.520889 -7.059021 -16.513885c-4.534912 -4.007248 -10.80249 -6.0108795 -18.802734 -6.0108795z" fill-rule="evenodd"/><path fill="#0d0d0d" d="m624.5878 224.30008l0 16.813354l-12.642151 0l0 9.176758l12.642151 0l0 43.06015c0 5.9039307 1.3475952 10.460205 4.0429077 13.668884c2.6952515 3.2086487 6.6953735 4.812958 12.000366 4.812958c2.9519653 0 5.989441 -0.4277954 9.112549 -1.2834473l0 -9.625977c-2.395813 0.5133972 -4.2781982 0.77008057 -5.647217 0.77008057c-2.7808228 0 -4.7488403 -0.6916504 -5.9039307 -2.0749207c-1.1550903 -1.3975525 -1.732666 -3.4867554 -1.732666 -6.267578l0 -43.06015l12.962952 0l0 -9.176758l-12.962952 0l0 -16.813354z" fill-rule="evenodd"/><path fill="#0d0d0d" d="m663.2842 211.97885l0 98.569885l11.872009 0l0 -49.477478c1.6257324 -3.336975 3.8931885 -6.032257 6.802368 -8.0858c2.9091797 -2.053543 6.2889404 -3.080307 10.139343 -3.080307c4.7488403 0 8.242676 1.1979065 10.481628 3.593689c2.2531738 2.3957977 3.401184 6.0964355 3.4439697 11.101959l0 45.947937l11.872009 0l0 -45.88376c-0.12835693 -16.556671 -7.529663 -24.835007 -22.203918 -24.835007c-8.42804 0 -15.273193 3.2300568 -20.5354 9.69014l0 -37.54126z" fill-rule="evenodd"/><path stroke="#0d0d0d" stroke-width="1.0" stroke-linejoin="round" stroke-linecap="butt" d="m77.704636 232.32172l15.914925 43.701874l-31.765682 0l15.850758 -43.701874zm-5.390541 -15.209015l-35.68025 93.436035l12.706276 0l8.791714 -24.385773l39.14559 0l8.920059 24.385773l12.642105 0l-35.744415 -93.436035z" fill-rule="evenodd"/><path stroke="#0d0d0d" stroke-width="1.0" stroke-linejoin="round" stroke-linecap="butt" d="m130.58327 211.97885l0 98.569885l11.872025 0l0 -98.569885z" fill-rule="evenodd"/><path stroke="#0d0d0d" stroke-width="1.0" stroke-linejoin="round" stroke-linecap="butt" d="m188.78827 249.58429c4.962723 0 8.898682 1.661377 11.807861 4.9841156c2.9091797 3.308487 4.534897 7.978836 4.8771515 14.011124l0 0.898407l-34.78183 0c0.77008057 -6.2889404 2.780838 -11.173248 6.0322723 -14.652847c3.2514496 -3.493866 7.2729645 -5.240799 12.064545 -5.240799zm0 -9.754318c-5.5188904 0 -10.645615 1.5330353 -15.380142 4.5990753c-4.7203064 3.0517883 -8.399567 7.287216 -11.037781 12.706268c-2.6239777 5.4048157 -3.9359436 11.551178 -3.9359436 18.439087l0 2.1818848c0 10.353241 2.95195 18.62445 8.855881 24.813599c5.9039307 6.1748657 13.56192 9.262299 22.973969 9.262299c11.636719 0 20.364273 -4.470703 26.182632 -13.41217l-7.2515717 -5.647217c-2.1818848 2.8236084 -4.727417 5.0910645 -7.6365967 6.8023376c-2.9091797 1.7112732 -6.460083 2.566925 -10.652725 2.566925c-5.9039307 0 -10.773956 -2.1034546 -14.610077 -6.310364c-3.821869 -4.221161 -5.8183594 -9.754303 -5.9894867 -16.599426l47.03888 0l0 -4.941345c0 -11.080536 -2.5027466 -19.594177 -7.508255 -25.540894c-5.0055084 -5.946701 -12.021759 -8.920059 -21.048782 -8.920059z" fill-rule="evenodd"/><path stroke="#0d0d0d" stroke-width="1.0" stroke-linejoin="round" stroke-linecap="butt" d="m225.43112 241.11343l22.71727 34.33261l-23.423187 35.10269l13.797226 0l16.043274 -25.990112l16.043274 25.990112l13.733032 0l-23.423157 -35.10269l22.717255 -34.33261l-13.861389 0l-15.401535 25.348389l-15.20903 -25.348389z" fill-rule="evenodd"/><path stroke="#0d0d0d" stroke-width="1.0" stroke-linejoin="round" stroke-linecap="butt" d="m359.61707 215.82924c-9.412048 0 -17.062897 2.4100494 -22.952576 7.2301636c-5.8753967 4.805847 -8.81311 10.888031 -8.81311 18.246552c0 6.502884 2.4029236 11.971848 7.2087708 16.406937c4.8201294 4.420807 12.513763 8.149963 23.080933 11.1875c8.42807 2.438568 14.246429 4.9128113 17.455078 7.422699c3.2086792 2.4956055 4.8129883 6.032257 4.8129883 10.609955c0 4.577667 -1.732666 8.192749 -5.1980286 10.845245c-3.465332 2.6524963 -8.449432 3.9787292 -14.952332 3.9787292c-6.9734497 0 -12.549408 -1.632843 -16.727783 -4.8985596c-4.1641235 -3.2799377 -6.2461853 -7.7435303 -6.2461853 -13.390778l-12.3854065 0c0 5.433319 1.5045166 10.289093 4.5135193 14.567291c3.0232544 4.2781982 7.315735 7.6508484 12.877411 10.11795c5.5616455 2.4528503 11.551147 3.6792603 17.968445 3.6792603c9.88266 0 17.77597 -2.2745667 23.679901 -6.8237305c5.9039 -4.5634155 8.8558655 -10.631348 8.8558655 -18.203766c0 -4.74881 -1.0624084 -8.877289 -3.1872559 -12.3854065c-2.1105957 -3.5081482 -5.36203 -6.574188 -9.754303 -9.198151c-4.3780518 -2.638214 -10.4530945 -5.048279 -18.225159 -7.2301636c-7.7578125 -2.1818848 -13.25531 -4.5848083 -16.492493 -7.208786c-3.222931 -2.6382294 -4.834381 -5.861145 -4.834381 -9.668747c0 -4.74881 1.6970215 -8.456589 5.0910645 -11.123337c3.4083252 -2.681015 8.149994 -4.021515 14.225037 -4.021515c6.5456543 0 11.615326 1.6185913 15.209045 4.855774c3.593689 3.2229156 5.3905334 7.6579895 5.3905334 13.305222l12.3854065 0c0 -5.1766357 -1.3833008 -9.946838 -4.149872 -14.310608c-2.7523193 -4.3637695 -6.6454773 -7.786331 -11.679504 -10.2677c-5.019745 -2.4813538 -10.738281 -3.7220306 -17.15561 -3.7220306z" fill-rule="evenodd"/><path stroke="#0d0d0d" stroke-width="1.0" stroke-linejoin="round" stroke-linecap="butt" d="m439.12753 239.82997c-8.5563965 0 -15.487091 3.3370056 -20.792084 10.011002l-0.38504028 -8.727539l-11.230286 0l0 69.4353l11.87204 0l0 -49.477478c1.6257019 -3.336975 3.893158 -6.032257 6.8023376 -8.0858c2.9091797 -2.053543 6.288971 -3.080307 10.139343 -3.080307c4.74881 0 8.242676 1.1979065 10.481628 3.593689c2.2531738 2.3957977 3.4011536 6.0964355 3.4439392 11.101959l0 45.947937l11.87204 0l0 -45.88376c-0.12835693 -16.556671 -7.529663 -24.835007 -22.203918 -24.835007z" fill-rule="evenodd"/><path stroke="#0d0d0d" stroke-width="1.0" stroke-linejoin="round" stroke-linecap="butt" d="m506.5735 249.58429c4.9627075 0 8.898682 1.661377 11.807861 4.9841156c2.9091797 3.308487 4.534851 7.978836 4.877136 14.011124l0 0.898407l-34.78183 0c0.77008057 -6.2889404 2.7808533 -11.173248 6.0322876 -14.652847c3.2514343 -3.493866 7.272949 -5.240799 12.064545 -5.240799zm0 -9.754318c-5.5188904 0 -10.645599 1.5330353 -15.380157 4.5990753c-4.7203064 3.0517883 -8.399536 7.287216 -11.037781 12.706268c-2.6239624 5.4048157 -3.9359436 11.551178 -3.9359436 18.439087l0 2.1818848c0 10.353241 2.9519653 18.62445 8.855896 24.813599c5.9039 6.1748657 13.56189 9.262299 22.973969 9.262299c11.636688 0 20.364227 -4.470703 26.182587 -13.41217l-7.251526 -5.647217c-2.1818848 2.8236084 -4.727417 5.0910645 -7.6365967 6.8023376c-2.9091797 1.7112732 -6.460083 2.566925 -10.6527405 2.566925c-5.9039307 0 -10.773956 -2.1034546 -14.610077 -6.310364c-3.821869 -4.221161 -5.8183594 -9.754303 -5.989502 -16.599426l47.03888 0l0 -4.941345c0 -11.080536 -2.5027466 -19.594177 -7.5082397 -25.540894c-5.005493 -5.946701 -12.02179 -8.920059 -21.048767 -8.920059z" fill-rule="evenodd"/><path stroke="#0d0d0d" stroke-width="1.0" stroke-linejoin="round" stroke-linecap="butt" d="m589.8702 276.85785l0 14.246429c-1.4973755 3.0803223 -3.9145508 5.583069 -7.251587 7.5082703c-3.336975 1.9251709 -6.866516 2.8877869 -10.588562 2.8877869c-3.8931885 0 -7.0804443 -1.0481567 -9.561768 -3.1445007c-2.4813843 -2.0963135 -3.722046 -5.005493 -3.722046 -8.727539c0 -8.513611 7.272949 -12.770447 21.818848 -12.770447zm-13.989746 -37.027878c-5.048279 0 -9.683044 0.9412079 -13.904175 2.8236237c-4.206909 1.8824005 -7.5439453 4.4421997 -10.010986 7.6793823c-2.4528809 3.2229156 -3.6792603 6.567047 -3.6792603 10.032379l11.936157 0c0 -3.037506 1.4332275 -5.625824 4.2996216 -7.7649384c2.866394 -2.1390991 6.4172974 -3.2086487 10.65271 -3.2086487c4.8344116 0 8.492249 1.233551 10.973633 3.700653c2.4813232 2.452835 3.722046 5.754196 3.722046 9.904037l0 5.454712l-11.551147 0c-9.968262 0 -17.70465 2.0036316 -23.20929 6.010895c-5.4903564 3.992981 -8.235535 9.604553 -8.235535 16.834747c0 5.946686 2.1890259 10.859497 6.5670166 14.738403c4.392273 3.8646545 10.010986 5.7969666 16.85614 5.7969666c7.65802 0 14.24646 -2.866394 19.76532 -8.599182c0.4277954 3.5081177 0.9840088 5.9467163 1.6685181 7.315735l12.449585 0l0 -1.0267639c-1.6257324 -3.7648315 -2.4385986 -8.834503 -2.4385986 -15.209045l0 -31.95819c-0.17114258 -7.016266 -2.52417 -12.520889 -7.059021 -16.513885c-4.534912 -4.007248 -10.80249 -6.0108795 -18.802734 -6.0108795z" fill-rule="evenodd"/><path stroke="#0d0d0d" stroke-width="1.0" stroke-linejoin="round" stroke-linecap="butt" d="m624.5878 224.30008l0 16.813354l-12.642151 0l0 9.176758l12.642151 0l0 43.06015c0 5.9039307 1.3475952 10.460205 4.0429077 13.668884c2.6952515 3.2086487 6.6953735 4.812958 12.000366 4.812958c2.9519653 0 5.989441 -0.4277954 9.112549 -1.2834473l0 -9.625977c-2.395813 0.5133972 -4.2781982 0.77008057 -5.647217 0.77008057c-2.7808228 0 -4.7488403 -0.6916504 -5.9039307 -2.0749207c-1.1550903 -1.3975525 -1.732666 -3.4867554 -1.732666 -6.267578l0 -43.06015l12.962952 0l0 -9.176758l-12.962952 0l0 -16.813354z" fill-rule="evenodd"/><path stroke="#0d0d0d" stroke-width="1.0" stroke-linejoin="round" stroke-linecap="butt" d="m663.2842 211.97885l0 98.569885l11.872009 0l0 -49.477478c1.6257324 -3.336975 3.8931885 -6.032257 6.802368 -8.0858c2.9091797 -2.053543 6.2889404 -3.080307 10.139343 -3.080307c4.7488403 0 8.242676 1.1979065 10.481628 3.593689c2.2531738 2.3957977 3.401184 6.0964355 3.4439697 11.101959l0 45.947937l11.872009 0l0 -45.88376c-0.12835693 -16.556671 -7.529663 -24.835007 -22.203918 -24.835007c-8.42804 0 -15.273193 3.2300568 -20.5354 9.69014l0 -37.54126z" fill-rule="evenodd"/></g></svg>